<svg id="Capa_1" enable-background="new 0 0 512 512" height="512" viewBox="0 0 512 512" width="512" xmlns="http://www.w3.org/2000/svg"><g><path style="fill:#FFFFFF" d="m256 0c-140.959 0-256 115.049-256 256 0 140.959 115.049 256 256 256 140.96 0 256-115.049 256-256 0-140.96-115.049-256-256-256zm0 482c-88.575 0-165.399-51.229-202.435-125.605 35.2-11.796 59.935-44.916 59.935-83.52 0-85.812 69.813-155.625 155.625-155.625 30.485 0 59.716 8.729 84.766 24.994-43.527 15.166-75.391 56.755-75.391 106.256 0 62.033 50.468 112.5 112.5 112.49h65.076c-37.874 71.888-113.34 121.01-200.076 121.01zm213.191-151h-78.191c-45.49 0-82.5-37.01-82.5-82.5 0-44.46 36.142-81.459 80.565-82.478 13.24-.304 19.623-16.451 10.144-25.721-34.982-34.211-81.181-53.052-130.084-53.052-102.354.001-185.625 83.272-185.625 185.626 0 26.199-17.259 48.575-41.535 55.732-7.755-22.797-11.965-47.22-11.965-72.607 0-124.617 101.383-226 226-226s226 101.383 226 226c0 26.28-4.524 51.52-12.809 75z"/></g></svg>
