<svg id="Capa_1" enable-background="new 0 0 512 512" height="512" viewBox="0 0 512 512" width="512" xmlns="http://www.w3.org/2000/svg"><g><path style="fill:#FFFFFF" d="m15 496h482c8.284 0 15-6.716 15-15v-120c0-8.284-6.716-15-15-15-8.432 0-12.039-3.252-19.394-10.607-8.184-8.184-19.393-19.393-40.606-19.393-21.07 0-32.549 11.109-40.931 19.221-7.523 7.28-11.518 10.779-20.069 10.779-8.432 0-12.039-3.252-19.394-10.607-8.184-8.184-19.393-19.393-40.606-19.393s-32.422 11.209-40.606 19.393c-7.355 7.355-10.962 10.607-19.394 10.607s-12.039-3.252-19.394-10.607c-8.184-8.184-19.393-19.393-40.606-19.393s-32.422 11.209-40.606 19.393c-7.355 7.355-10.962 10.607-19.394 10.607-8.551 0-12.546-3.499-20.069-10.779-8.382-8.112-19.861-19.221-40.931-19.221-21.213 0-32.422 11.209-40.606 19.393-7.355 7.355-10.962 10.607-19.394 10.607-8.284 0-15 6.716-15 15v120c0 8.284 6.716 15 15 15zm15-122.131c11.989-3.646 19.61-11.266 25.606-17.262 7.355-7.355 10.962-10.607 19.394-10.607 8.551 0 12.546 3.499 20.069 10.779 8.382 8.112 19.861 19.221 40.931 19.221 21.213 0 32.422-11.209 40.606-19.393 7.355-7.355 10.962-10.607 19.394-10.607s12.039 3.252 19.394 10.607c8.184 8.184 19.393 19.393 40.606 19.393s32.422-11.209 40.606-19.393c7.355-7.355 10.962-10.607 19.394-10.607s12.039 3.252 19.394 10.607c8.184 8.184 19.393 19.393 40.606 19.393 21.07 0 32.549-11.109 40.931-19.221 7.523-7.28 11.518-10.779 20.069-10.779 8.432 0 12.039 3.252 19.394 10.607 5.996 5.996 13.618 13.617 25.606 17.262v40.778c-1.346-1.229-2.776-2.637-4.394-4.254-8.184-8.184-19.393-19.393-40.606-19.393-21.07 0-32.549 11.109-40.931 19.221-7.523 7.28-11.518 10.779-20.069 10.779-8.432 0-12.039-3.252-19.394-10.607-8.184-8.184-19.393-19.393-40.606-19.393s-32.422 11.209-40.606 19.393c-7.355 7.355-10.962 10.607-19.394 10.607s-12.039-3.252-19.394-10.607c-8.184-8.184-19.393-19.393-40.606-19.393s-32.422 11.209-40.606 19.393c-7.355 7.355-10.962 10.607-19.394 10.607-8.551 0-12.546-3.499-20.069-10.779-8.382-8.112-19.861-19.221-40.931-19.221-21.213 0-32.422 11.209-40.606 19.393-1.617 1.617-3.048 3.024-4.394 4.254zm0 74.993c11.986-3.646 19.611-11.26 25.606-17.255 7.355-7.355 10.962-10.607 19.394-10.607 8.551 0 12.546 3.499 20.069 10.779 8.382 8.112 19.861 19.221 40.931 19.221 21.213 0 32.422-11.209 40.606-19.393 7.355-7.355 10.962-10.607 19.394-10.607s12.039 3.252 19.394 10.607c8.184 8.184 19.393 19.393 40.606 19.393s32.422-11.209 40.606-19.393c7.355-7.355 10.962-10.607 19.394-10.607s12.039 3.252 19.394 10.607c8.184 8.184 19.393 19.393 40.606 19.393 21.07 0 32.549-11.109 40.931-19.221 7.523-7.28 11.518-10.779 20.069-10.779 8.432 0 12.039 3.252 19.394 10.607 5.995 5.996 13.62 13.609 25.606 17.255v17.138h-452z"/><path style="fill:#FFFFFF" d="m45 286c8.284 0 15-6.716 15-15v-53.787l4.394 4.394c5.857 5.857 15.355 5.858 21.213 0s5.858-15.355 0-21.213l-30-30c-5.857-5.858-15.355-5.858-21.213 0l-30 30c-5.858 5.858-5.858 15.355 0 21.213 5.857 5.858 15.355 5.858 21.213 0l4.393-4.394v53.787c0 8.284 6.716 15 15 15z"/><path style="fill:#FFFFFF" d="m467 166c-8.284 0-15 6.716-15 15v53.787l-4.394-4.394c-5.857-5.858-15.355-5.858-21.213 0s-5.858 15.355 0 21.213l30 30c5.857 5.857 15.355 5.858 21.213 0l30-30c5.858-5.858 5.858-15.355 0-21.213-5.857-5.858-15.355-5.858-21.213 0l-4.393 4.394v-53.787c0-8.284-6.716-15-15-15z"/><path style="fill:#FFFFFF" d="m304.551 52.46c5.331-2.642 8.596-8.186 8.323-14.129s-4.034-11.164-9.585-13.305c-15.522-5.989-31.433-9.026-47.289-9.026-74.439 0-135 60.561-135 135s60.561 135 135 135c68.073 0 124.335-50.719 133.255-117.009.797-5.926-2-11.759-7.121-14.846s-11.585-2.839-16.453.632c-10.298 7.342-22.291 11.223-34.681 11.223-33.084 0-60-26.916-60-60 0-22.767 12.856-43.283 33.551-53.54zm26.449 143.54c6.925 0 13.761-.799 20.406-2.365-16.47 36.985-53.495 62.365-95.406 62.365-57.897 0-105-47.103-105-105s47.103-105 105-105c2.602 0 5.209.108 7.819.324-14.502 16.131-22.819 37.161-22.819 59.676 0 49.626 40.374 90 90 90z"/></g></svg>
